<svg width="24" height="24" viewBox="0 0 24 24" fill="none" xmlns="http://www.w3.org/2000/svg">
<g id="Mask Group">
<mask id="mask0_417_1426" style="mask-type:alpha" maskUnits="userSpaceOnUse" x="0" y="0" width="24" height="24">
<rect id="Mask" x="24" width="24" height="24" transform="rotate(90 24 0)" fill="#D9D9D9"/>
</mask>
<g mask="url(#mask0_417_1426)">
<path id="Vector" d="M9.58315 12L13.976 16.5L15.3427 15.075L12.3409 12L15.3427 8.925L13.976 7.5L9.58315 12ZM3.23791 12C3.23791 10.6167 3.49432 9.31667 4.00714 8.1C4.51932 6.88333 5.21469 5.825 6.09326 4.925C6.97184 4.025 8.00497 3.31267 9.19267 2.788C10.3804 2.26267 11.6494 2 12.9998 2C14.3502 2 15.6193 2.26267 16.807 2.788C17.9947 3.31267 19.0278 4.025 19.9064 4.925C20.7849 5.825 21.4806 6.88333 21.9935 8.1C22.5056 9.31667 22.7617 10.6167 22.7617 12C22.7617 13.3833 22.5056 14.6833 21.9935 15.9C21.4806 17.1167 20.7849 18.175 19.9064 19.075C19.0278 19.975 17.9947 20.6873 16.807 21.212C15.6193 21.7373 14.3502 22 12.9998 22C11.6494 22 10.3804 21.7373 9.19267 21.212C8.00497 20.6873 6.97183 19.975 6.09326 19.075C5.21469 18.175 4.51932 17.1167 4.00714 15.9C3.49432 14.6833 3.23791 13.3833 3.23791 12ZM5.19029 12C5.19029 14.2333 5.94684 16.125 7.45993 17.675C8.97303 19.225 10.8197 20 12.9998 20C15.18 20 17.0266 19.225 18.5397 17.675C20.0528 16.125 20.8093 14.2333 20.8093 12C20.8093 9.76667 20.0528 7.875 18.5397 6.325C17.0266 4.775 15.18 4 12.9998 4C10.8197 4 8.97303 4.775 7.45993 6.325C5.94684 7.875 5.19029 9.76667 5.19029 12Z" fill="#9A9A9A"/>
</g>
</g>
</svg>
