<svg width="20" height="21" viewBox="0 0 20 21" fill="none" xmlns="http://www.w3.org/2000/svg">
<g id="icon - dashboard/clock-time">
<path id="icon" d="M5.05144 16.1353L5.05173 16.1356C5.67885 16.7632 6.41758 17.2634 7.27245 17.6355C8.11582 18.0023 9.02312 18.1873 9.99969 18.1873C10.9763 18.1873 11.8839 18.0023 12.7279 17.6354C13.5821 17.2633 14.3209 16.7632 14.9486 16.1354C15.5758 15.5083 16.0757 14.7695 16.4479 13.9146C16.8147 13.0712 16.9997 12.1639 16.9997 11.1873C16.9997 10.2108 16.8147 9.30315 16.4478 8.45916C16.0757 7.60493 15.5759 6.86621 14.9488 6.23853C14.321 5.61129 13.5822 5.11163 12.7278 4.74001L12.7276 4.73995C11.8837 4.3726 10.9762 4.18734 9.99969 4.18734C9.02322 4.18734 8.116 4.3726 7.27269 4.73991L7.27235 4.74006C6.41744 5.11167 5.67869 5.61128 5.05158 6.23839C4.42381 6.86616 3.92363 7.605 3.55149 8.45936L5.05144 16.1353ZM5.05144 16.1353C4.4238 15.5082 3.92367 14.7694 3.55154 13.9146M5.05144 16.1353L3.55154 13.9146M3.55154 13.9146C3.18472 13.0712 2.99969 12.1639 2.99969 11.1873C2.99969 10.2109 3.18467 9.30339 3.55143 8.4595L3.55154 13.9146ZM10.333 10.854V11.0611L10.4795 11.2076L12.7926 13.5207L12.333 13.9802L9.66636 11.3136V7.52067H10.333V10.854ZM4.66636 3.01944L5.12592 3.479L2.29136 6.31356L1.8318 5.854L4.66636 3.01944ZM14.8735 3.479L15.333 3.01944L18.1676 5.854L17.708 6.31356L14.8735 3.479ZM9.99969 17.5207C11.755 17.5207 13.2612 16.9035 14.4882 15.676C15.7158 14.449 16.333 12.9427 16.333 11.1873C16.333 9.43194 15.7158 7.92549 14.4882 6.69795C13.2612 5.47091 11.755 4.854 9.99969 4.854C8.24437 4.854 6.73818 5.47091 5.51114 6.69795C4.2836 7.92549 3.66636 9.43194 3.66636 11.1873C3.66636 12.9427 4.28355 14.4488 5.51105 15.6758C5.51108 15.6758 5.51111 15.6759 5.51114 15.6759C5.51117 15.6759 5.5112 15.6759 5.51123 15.676C6.73822 16.9035 8.24438 17.5207 9.99969 17.5207Z" fill="#757575" stroke="#757575"/>
</g>
</svg>
