<svg width="24" height="24" viewBox="0 0 24 24" fill="none" xmlns="http://www.w3.org/2000/svg">
<g id="Frame">
<rect width="24" height="24" rx="12" fill="white"/>
<g id="Group">
<path id="Vector" d="M8.87881 6.32617C8.85249 6.32617 8.85249 6.32617 8.82617 6.32617C8.85249 6.43093 8.90513 6.53569 9.01041 6.58807C9.03673 6.56188 9.03673 6.53569 9.03673 6.48331C9.03673 6.37855 8.95777 6.32617 8.87881 6.32617Z" fill="#242424"/>
<path id="Vector_2" d="M8.85156 6.03764C8.87788 6.03764 8.9042 6.06383 8.9042 6.06383C8.98316 6.06383 9.06212 5.98526 9.06212 5.90669C9.06212 5.8805 9.06212 5.85431 9.0358 5.82812C8.95684 5.85431 8.9042 5.95907 8.85156 6.03764Z" fill="#242424"/>
<path id="Vector_3" d="M16.1699 7.05934C16.1699 6.82364 16.1699 6.4308 16.012 5.88082C15.8278 5.25228 15.433 4.59755 15.433 4.59755L15.4066 4.57136C15.3277 4.44041 15.1961 4.33566 15.0908 4.25709C14.9329 4.15233 14.8013 4.12614 14.6697 4.12614C14.5381 4.12614 14.4591 4.17852 14.3801 4.2309C14.3275 4.25709 14.1959 4.36184 14.0117 4.38803C13.9064 4.38803 13.7748 4.38803 13.6695 4.36184C13.4326 4.30947 13.2484 4.20471 13.0378 4.07376C12.643 3.83806 12.2745 3.60235 11.8271 3.44522C11.7744 3.41903 11.6165 3.36665 11.327 3.41903C11.0638 3.47141 10.7743 3.62854 10.59 3.75949C10.4058 3.89044 10.2215 4.02138 10.0373 4.15233C9.85306 4.30947 9.69514 4.4666 9.56354 4.62374C9.82674 4.2309 10.1689 3.94282 10.5374 3.68092C10.6427 3.60235 10.9585 3.41903 11.327 3.31427C11.6428 3.2357 11.8271 3.34046 11.8534 3.34046C12.1166 3.44522 12.3535 3.57616 12.5904 3.70711C12.9588 3.89044 13.3273 3.83806 13.6695 3.78568C14.2485 3.70711 14.8013 3.60235 15.3803 4.54517C14.7749 3.41903 14.7486 3.65473 14.3538 3.57616C14.3275 3.57616 14.3275 3.57616 14.3012 3.57616C13.8537 3.47141 13.0641 3.18333 12.6956 3.05238C12.643 3 12.5377 3 12.4324 3C11.9587 3 11.1691 3.20951 10.6163 3.26189C10.4584 3.28808 10.3268 3.31427 10.2215 3.34046C9.9057 3.47141 9.85306 3.68092 9.72146 3.83806C9.6425 3.94282 9.58986 3.969 9.5109 3.969C8.98449 4.15233 7.77376 5.64512 8.03696 7.74027C8.06328 7.94978 8.0896 8.13311 8.14224 8.34262C8.66865 10.333 10.3531 13.0043 10.7743 13.7376C10.4584 14.4447 9.82674 15.8851 9.61618 17.247C9.61618 17.2994 9.56354 17.6136 9.56354 17.8755C9.53722 18.5565 9.66882 19.185 10.0636 19.6564C10.0636 19.6564 10.3268 19.9969 10.8269 20.154C11.1691 20.3111 11.4323 20.2064 11.6955 20.1802C11.8008 20.2588 11.9324 20.3111 12.0376 20.3373C12.064 20.3373 12.0903 20.3635 12.1166 20.3635C12.2482 20.2588 12.4061 20.1278 12.5114 19.9707C12.4851 19.9707 12.4324 19.8921 12.4061 19.8135C12.4061 19.735 12.4324 19.6826 12.5114 19.6302C12.564 19.5778 12.643 19.5516 12.6956 19.4993C12.722 19.4731 12.7483 19.4207 12.7483 19.3683C12.7483 19.3159 12.722 19.3159 12.6693 19.3159C12.643 19.3159 12.6167 19.3159 12.6167 19.3421C12.6167 19.2898 12.6956 19.2374 12.722 19.2374C12.8009 19.2112 12.8536 19.2112 12.8799 19.2374C12.9325 19.2636 12.9325 19.3159 12.9062 19.3945C12.8799 19.4469 12.8536 19.4993 12.8009 19.5516C12.8009 19.5778 12.7746 19.5778 12.7483 19.604C12.722 19.6564 12.6693 19.735 12.6693 19.7612L12.6956 19.735C12.8009 19.6302 12.8799 19.5516 12.9852 19.4469C12.9852 19.4469 12.9852 19.4469 13.0115 19.4207C13.0115 19.4469 13.0115 19.4469 13.0115 19.4469C12.9852 19.4993 12.9588 19.5778 12.9325 19.6302C12.9062 19.7088 12.8799 19.7612 12.8272 19.8397C12.8799 19.8135 12.9325 19.735 13.0115 19.6302C13.0378 19.5778 13.0641 19.5255 13.0905 19.4993C13.1168 19.4731 13.1431 19.4207 13.1694 19.4207C13.2221 19.3683 13.301 19.3683 13.3273 19.4207C13.3537 19.4469 13.38 19.4993 13.3537 19.5778C13.3537 19.604 13.3273 19.6564 13.301 19.7088C13.301 19.6826 13.301 19.6826 13.301 19.6826C13.301 19.6302 13.2747 19.604 13.2221 19.6302C13.1694 19.6564 13.1168 19.7088 13.0905 19.7612C13.0641 19.8135 13.0641 19.8659 13.0378 19.9183C13.0115 19.9707 12.9852 20.0492 12.9062 20.1016C12.8009 20.1802 12.6693 20.1802 12.564 20.1278C12.4324 20.2588 12.3272 20.3897 12.1956 20.4945C12.2482 20.4945 12.2745 20.5207 12.3272 20.5207C12.3535 20.4945 12.4061 20.4421 12.4588 20.4159C12.564 20.3111 12.6693 20.2588 12.8272 20.2588C12.8009 20.2849 12.7746 20.3111 12.7483 20.3373C12.722 20.3635 12.6956 20.3897 12.6693 20.4159C12.643 20.4421 12.5904 20.4945 12.564 20.5207C12.564 20.5207 12.5377 20.5207 12.5377 20.5468C12.564 20.5468 12.5904 20.5468 12.6167 20.5468C12.722 20.3897 12.9062 20.2588 13.0905 20.2064C13.1431 20.1802 13.1957 20.2064 13.2484 20.2064C13.301 20.2064 13.3273 20.2326 13.38 20.2326C13.4326 20.2326 13.5116 20.2064 13.5905 20.1802C13.6695 20.154 13.7221 20.0754 13.7485 19.9969C13.7748 19.9183 13.7748 19.8659 13.7221 19.8397C13.6695 19.8135 13.5642 19.8397 13.5116 19.9445C13.4853 19.9707 13.5116 20.0492 13.5116 20.0492C13.5379 20.0492 13.5379 20.0492 13.5905 20.0231C13.5905 20.0231 13.5905 20.0231 13.6169 20.0231V20.0492C13.5905 20.0754 13.5642 20.1278 13.5379 20.1278C13.4853 20.154 13.4853 20.1278 13.4589 20.1278C13.3537 20.0492 13.4326 19.8921 13.4853 19.8135C13.5642 19.7088 13.7485 19.7612 13.8011 19.7874C13.8011 19.7874 13.8011 19.7874 13.8274 19.7874C13.8537 19.735 13.8801 19.7088 13.9064 19.6564C13.9327 19.6826 13.9327 19.735 13.9064 19.7612C13.8801 19.8135 13.8801 19.8659 13.8537 19.8921C13.8801 19.8659 13.9327 19.8397 13.959 19.8135C13.9327 19.9445 13.8537 20.0231 13.7748 20.1016C13.8011 20.1016 13.8274 20.1016 13.8274 20.1278C13.7748 20.2326 13.6958 20.2849 13.6169 20.3111C13.5642 20.3111 13.5116 20.3111 13.4589 20.3111C13.38 20.3111 13.301 20.2849 13.1957 20.2849C13.0905 20.2849 12.9588 20.3373 12.8272 20.4159C12.7746 20.4421 12.7483 20.4945 12.722 20.5207H12.7483C12.7746 20.5207 12.8009 20.5207 12.8272 20.5207C12.9588 20.4421 13.1168 20.3897 13.2484 20.3897C13.3273 20.3897 13.4063 20.3897 13.4326 20.4421C13.6169 20.3897 13.8011 20.3111 13.9064 20.2588C14.4065 20.1016 14.6433 19.7874 14.8013 19.3421C14.9065 19.0017 15.0908 18.3731 14.8802 17.4565C14.8802 17.4827 14.8539 17.4827 14.8276 17.5089C14.7749 17.5351 14.7223 17.5089 14.696 17.4827C14.6697 17.4303 14.6433 17.3779 14.5907 17.3256C14.6697 17.3256 14.7223 17.3256 14.7749 17.3779C14.8013 17.4041 14.8276 17.4041 14.8539 17.4041C14.8276 17.3256 14.8276 17.2732 14.8013 17.1946C14.7749 17.1684 14.7486 17.1422 14.7223 17.116C14.696 17.1684 14.6697 17.2208 14.5907 17.247C14.5644 17.1422 14.5381 17.0375 14.4065 17.0113C14.4065 17.0113 14.4065 16.9851 14.4328 16.9851C14.5117 16.9327 14.617 16.9327 14.7223 16.9327C14.696 16.8803 14.6697 16.8018 14.6433 16.7232C14.5644 16.7494 14.4854 16.7756 14.4328 16.8018C14.4591 16.7232 14.5381 16.6446 14.5907 16.5923C14.4065 16.1732 14.1433 15.6233 13.7485 14.9161C13.7221 14.9161 13.7221 14.9161 13.7221 14.9161C13.6432 14.8899 13.5905 14.9161 13.5905 14.9947C13.5905 15.0733 13.6432 15.1518 13.7221 15.2304C13.7748 15.2828 13.8537 15.309 13.9064 15.3614C13.9853 15.4137 14.0643 15.4923 14.0906 15.5971C14.1433 15.7804 14.0906 15.8851 14.0117 15.9899C14.0117 15.9899 14.038 15.7804 13.8801 15.6233C13.8274 15.5709 13.7748 15.4923 13.6958 15.4399C13.5905 15.3352 13.4853 15.2566 13.4063 15.1518C13.38 15.1257 13.3537 15.0995 13.3537 15.0471C13.2747 14.9161 13.3273 14.8114 13.38 14.7852C13.4326 14.759 13.5116 14.759 13.5905 14.8114C13.6432 14.8376 13.6958 14.8899 13.7221 14.9423C13.5642 14.6542 13.38 14.34 13.1957 13.9733C13.7748 12.8996 15.275 10.2544 15.5646 9.49495C15.6698 9.31163 16.1699 8.1593 16.1699 7.05934ZM9.61618 4.91182L9.7741 5.17371L9.5109 5.33085L9.35297 5.06896L9.61618 4.91182ZM9.19505 7.55694L8.98449 7.34743L9.19505 7.13791L9.40561 7.34743L9.19505 7.55694ZM9.27401 6.84983C8.90553 6.84983 8.61601 6.56175 8.61601 6.1951C8.61601 5.82845 8.90553 5.54036 9.27401 5.54036C9.6425 5.54036 9.93202 5.82845 9.93202 6.1951C9.93202 6.56175 9.6425 6.84983 9.27401 6.84983ZM14.6433 17.3517C14.696 17.3779 14.7223 17.4041 14.7486 17.4303C14.7749 17.4565 14.8013 17.5089 14.8802 17.4827C14.8539 17.5351 14.8013 17.5874 14.7486 17.5874C14.7223 17.5874 14.7223 17.5874 14.696 17.5874C14.6697 17.5613 14.6433 17.4565 14.6433 17.3517ZM14.617 17.5613C14.6697 17.6136 14.7223 17.6398 14.7486 17.7184C14.7486 17.7446 14.7486 17.7708 14.7223 17.7708H14.696C14.696 17.7708 14.6697 17.7708 14.6697 17.7446C14.617 17.7184 14.617 17.6398 14.617 17.5613ZM10.5111 8.86641C10.4058 8.52595 10.3005 8.18548 10.2479 7.84502C10.0636 6.9284 10.1426 6.37842 10.5111 5.61893C10.5111 5.59274 10.5374 5.59274 10.5374 5.56655C10.6953 5.4618 11.248 5.22609 12.0113 5.40942C12.6956 5.59274 13.0641 6.06415 13.2221 6.53556C13.6432 7.68789 12.7483 9.94017 11.9587 11.5639C11.3796 10.6211 10.8532 9.73065 10.5111 8.86641ZM12.6167 14.4185C12.564 14.34 12.5114 14.2876 12.5114 14.2352C12.5114 14.209 12.5114 14.209 12.5377 14.209C12.5904 14.209 12.643 14.2352 12.722 14.2876C12.7746 14.34 12.8536 14.3924 12.9062 14.4447C12.9062 14.4185 12.8799 14.4185 12.8799 14.3924C12.8009 14.2876 12.722 14.2352 12.6167 14.1828C12.564 14.1566 12.5114 14.1043 12.4851 14.0781C12.4851 14.0519 12.4851 14.0257 12.4851 14.0257C12.5114 13.9995 12.564 14.0257 12.6167 14.0781C12.6693 14.1305 12.6956 14.1828 12.7483 14.2352C12.8009 14.2352 12.8272 14.2614 12.8799 14.3138C12.9062 14.3662 12.9325 14.4185 12.9588 14.4709C12.9588 14.4971 12.9852 14.4971 13.0115 14.5233C13.0378 14.5495 13.0641 14.5757 13.0905 14.6019C13.1431 14.6804 13.1168 14.7852 13.0905 14.8114C13.0641 14.8376 13.0378 14.8638 13.0115 14.8638C12.9852 14.8638 12.9325 14.8638 12.8799 14.8376C12.8272 14.8114 12.8009 14.7852 12.7746 14.7328L12.7483 14.7066C12.6956 14.6804 12.6693 14.6542 12.6167 14.6281C12.5377 14.5757 12.5114 14.5233 12.5114 14.4709C12.4588 14.4447 12.4061 14.3924 12.3535 14.3662C12.3008 14.3138 12.2745 14.2614 12.2745 14.2352C12.3272 14.1566 12.4588 14.3138 12.4851 14.3662C12.5377 14.4447 12.6167 14.5233 12.6956 14.6019L12.722 14.6281C12.6956 14.5233 12.643 14.4709 12.6167 14.4185ZM12.7483 14.1043C12.6956 14.0257 12.6167 13.9209 12.6167 13.8686C12.6167 13.8424 12.6167 13.8162 12.6693 13.8162C12.6956 13.8162 12.722 13.8424 12.722 13.8686C12.7483 13.9209 12.7483 13.9471 12.7483 13.9733C12.722 14.0257 12.722 14.0519 12.7483 14.1043ZM13.6169 16.0947C13.5116 16.0685 13.4589 15.9899 13.4063 15.8851C13.38 15.7804 13.3537 15.6756 13.301 15.5709C13.2747 15.5185 13.1957 15.4399 13.1431 15.4399C13.0905 15.4399 13.0378 15.4661 13.0378 15.5185C13.0378 15.5447 13.0378 15.5709 13.0378 15.6233C12.9852 15.5971 12.9325 15.4923 12.9325 15.4137C12.9325 15.309 12.9588 15.2304 13.0115 15.178C13.0641 15.1257 13.1431 15.1257 13.2221 15.2042C13.2747 15.2566 13.3537 15.3352 13.4063 15.4137C13.4853 15.5185 13.5379 15.6494 13.5905 15.7804C13.6432 15.8851 13.6958 15.9637 13.7748 16.0161C13.8011 16.0423 13.8274 16.0423 13.8537 16.0685C13.7748 16.0947 13.6958 16.1208 13.6169 16.0947ZM14.1169 16.4613C14.1433 16.5399 14.1696 16.6184 14.1959 16.6708C14.1696 16.6708 14.1433 16.697 14.1169 16.697C14.0906 16.697 14.0643 16.697 14.038 16.697C13.959 16.697 13.9064 16.6708 13.8801 16.5923C13.8274 16.4613 13.7748 16.3042 13.7221 16.147C13.7748 16.147 13.8011 16.147 13.8274 16.147C13.959 16.2256 14.0643 16.3042 14.1169 16.4613ZM12.8536 15.7018C12.9325 15.7542 13.0641 15.8328 13.0905 15.9113C13.1431 16.0423 13.0378 16.1732 12.9325 16.1732C13.0378 16.0161 12.9852 15.8328 12.8536 15.7018ZM12.3798 14.9161C12.4061 14.9685 12.4588 15.0209 12.5114 14.9947C12.5377 14.9947 12.564 14.9685 12.5377 14.9423C12.5377 14.9161 12.5114 14.8899 12.4851 14.8638C12.4588 14.8376 12.4324 14.8638 12.4324 14.8638C12.4324 14.8114 12.4324 14.8114 12.4588 14.8114C12.5114 14.8114 12.5904 14.8899 12.5904 14.9423C12.5904 14.9947 12.564 15.0471 12.5377 15.0733C12.4851 15.0995 12.4061 15.0733 12.3798 15.0209C12.3535 14.9947 12.3272 14.9685 12.3008 14.9423C12.2745 14.9423 12.2482 14.9423 12.2482 14.9423C12.2482 14.9423 12.2219 14.8638 12.2745 14.8114C12.2482 14.7852 12.2482 14.7852 12.2219 14.7852C12.1692 14.759 12.1692 14.7328 12.1956 14.7066C12.2219 14.7066 12.2219 14.6804 12.2482 14.6804C12.2745 14.6804 12.3008 14.6804 12.3272 14.6542C12.3008 14.6281 12.2745 14.6019 12.2745 14.5757L12.3008 14.5495C12.3272 14.5495 12.3798 14.5495 12.4324 14.5757C12.5114 14.6281 12.5904 14.6804 12.6693 14.7328C12.8272 14.8376 12.9588 14.9423 13.0905 14.8899V14.9161C13.0378 14.9685 12.9588 15.0209 12.8536 14.9685C12.7483 14.9161 12.643 14.759 12.5377 14.7066C12.4851 14.6804 12.4324 14.6804 12.3798 14.6804C12.3272 14.7066 12.3272 14.759 12.3272 14.8114C12.3535 14.8638 12.3535 14.8899 12.3798 14.9161ZM12.1692 14.4447C12.1692 14.3138 12.3798 14.3924 12.4851 14.4709C12.4588 14.4709 12.4061 14.4709 12.3798 14.4709C12.3535 14.4709 12.3272 14.4971 12.3008 14.5233H12.2745C12.2219 14.5233 12.1692 14.5233 12.1692 14.4447ZM12.3535 14.0781C12.3272 14.0781 12.3272 14.0781 12.3008 14.0519C12.3272 14.0781 12.3272 14.0781 12.3535 14.0781C12.3272 14.1305 12.3008 14.1305 12.2745 14.1305C12.2482 14.1305 12.2219 14.1305 12.1956 14.1043C12.1692 14.0781 12.1166 14.0519 12.0903 14.0257C12.0903 13.9995 12.1166 13.9471 12.1429 13.9471C12.0903 13.8948 12.0376 13.8686 12.0113 13.79C11.985 13.7376 11.9587 13.6852 11.9587 13.6591C11.9587 13.6329 11.985 13.6329 11.985 13.6591C12.0113 13.6852 12.064 13.7114 12.1166 13.7638C12.1692 13.8162 12.1956 13.8686 12.2219 13.9209C12.2219 13.8948 12.2745 13.8424 12.3008 13.8424C12.3008 13.8686 12.3272 13.8948 12.3272 13.9209C12.3272 13.9471 12.3535 13.9733 12.3798 13.9995C12.4061 14.0519 12.3798 14.0519 12.3535 14.0781ZM10.8532 19.2898C10.8006 19.2898 10.7479 19.2898 10.6953 19.2898C10.2215 19.2112 10.011 18.7136 9.98466 18.635C9.7741 18.0327 9.82674 16.8018 10.9322 14.0519C11.0375 14.2876 11.1428 14.5233 11.1954 14.6281C11.8271 15.9113 11.985 17.1422 11.985 17.7708C11.9587 18.3469 11.5902 19.2898 10.8532 19.2898ZM11.6955 19.2636C11.7744 19.2636 11.8008 19.3159 11.8534 19.3421V19.3159C11.9587 19.3945 12.0113 19.4731 12.0376 19.5778C12.0376 19.6564 11.985 19.8135 11.9324 19.8397C11.906 19.6302 11.8271 19.4731 11.5902 19.3683C11.5902 19.3683 11.6692 19.3683 11.7218 19.3683C11.7218 19.3421 11.7218 19.2898 11.6955 19.2636ZM11.5376 20.1278C11.5639 20.1016 11.5639 20.1016 11.5902 20.0754C11.5639 20.0492 11.5112 19.9969 11.5112 19.9969C11.5639 19.9969 11.5902 19.9969 11.6428 19.9969V19.9707C11.8534 19.9969 12.0376 20.1802 12.064 20.2849C11.906 20.2326 11.7481 20.1278 11.5376 20.1278ZM12.2219 20.1016C12.1692 20.1278 12.1429 20.1802 12.0903 20.2064C12.0903 20.2064 12.064 20.1802 12.0376 20.154C11.985 20.1016 11.985 20.0231 12.0376 19.9969C12.1166 19.9183 12.1956 19.8659 12.3008 19.7874C12.3008 19.8135 12.3008 19.8397 12.3272 19.8659C12.3535 19.9445 12.3272 20.0231 12.2219 20.1016ZM12.3798 19.2636C12.3008 19.3159 12.1429 19.2636 12.1429 19.185C12.1429 19.1326 12.1956 19.1064 12.2219 19.0802C12.2219 19.1064 12.2219 19.1326 12.2219 19.1326C12.2482 19.1588 12.2745 19.1588 12.3008 19.1326C12.3272 19.1064 12.3798 19.0541 12.3798 19.0279C12.3798 18.9755 12.3272 18.9231 12.2745 18.9231C12.1692 18.8969 12.0903 18.9755 12.064 19.0802C12.0376 19.1588 12.0903 19.2112 12.1166 19.2636C12.1429 19.3421 12.2482 19.4469 12.2745 19.5255C12.3535 19.7088 12.1956 19.8921 11.9324 19.9707C11.906 19.9707 11.8271 19.9969 11.8271 19.9707V19.9445C11.906 19.9445 11.985 19.9183 12.0376 19.8659C12.1166 19.7874 12.1692 19.7088 12.1692 19.6302C12.1692 19.5255 12.1166 19.4469 12.0376 19.3945C11.985 19.3159 11.9324 19.2636 11.8797 19.185C11.8271 19.1064 11.8271 19.0279 11.906 18.9493C11.9324 18.9755 11.9324 18.9755 11.9587 19.0017C11.985 18.9493 11.985 18.9231 12.0113 18.8707C12.0376 18.8183 12.064 18.7922 12.1166 18.7922C12.1166 18.8445 12.1429 18.8707 12.1429 18.8969C12.1956 18.8183 12.2482 18.766 12.3272 18.766C12.3272 18.7922 12.3008 18.8445 12.2745 18.8707C12.2745 18.8707 12.2745 18.8707 12.3008 18.8707C12.3798 18.8969 12.4061 18.9231 12.4324 19.0279C12.4851 19.1064 12.4588 19.2112 12.3798 19.2636ZM12.2745 16.3042C12.3008 16.278 12.3535 16.278 12.3798 16.2518C12.3272 16.1994 12.3008 16.1732 12.2482 16.1208C12.2219 16.0685 12.1692 16.0161 12.1956 15.9375C12.2482 15.9375 12.3008 15.9637 12.3535 15.9637C12.3008 15.859 12.2482 15.7542 12.3008 15.6494C12.3272 15.6756 12.3798 15.728 12.4061 15.7542L12.4324 15.728C12.5114 15.6494 12.5904 15.6233 12.6956 15.6756C12.8009 15.728 12.8536 15.8066 12.8536 15.9113C12.8799 16.0423 12.7746 16.147 12.6693 16.1208C12.6167 16.0947 12.564 16.0161 12.5904 15.9637C12.6167 15.9899 12.643 16.0161 12.6693 15.9899C12.6956 15.9899 12.722 15.9375 12.722 15.9113C12.722 15.859 12.6693 15.7804 12.643 15.7542C12.564 15.728 12.4851 15.7542 12.4324 15.8066C12.3535 15.9375 12.4061 16.0685 12.5114 16.147C12.5904 16.1994 12.6956 16.1994 12.7746 16.1994C12.8799 16.1994 13.0115 16.1732 13.1168 16.1994C13.4063 16.2256 13.6432 16.4613 13.5642 16.8018C13.5642 16.8541 13.5116 16.9065 13.4853 16.9589L13.4589 16.9327C13.5116 16.828 13.5379 16.7232 13.4853 16.6184C13.4589 16.4875 13.38 16.3566 13.2484 16.3304C13.1168 16.278 12.9852 16.3042 12.8536 16.3304C12.7483 16.3566 12.6167 16.3827 12.5114 16.4089C12.4324 16.4875 12.3272 16.4351 12.2745 16.3042ZM12.6693 16.9851C12.6693 16.9851 12.722 16.8803 12.722 16.8018C12.6693 16.8018 12.6167 16.8018 12.564 16.8018C12.6167 16.7232 12.6956 16.697 12.7746 16.6184C12.7483 16.6184 12.7483 16.5923 12.722 16.5923C12.8799 16.4875 13.0115 16.4351 13.1694 16.4875C13.2747 16.5137 13.4589 16.6446 13.4853 16.7232C13.2221 16.697 12.9588 16.7232 12.6693 16.9851ZM13.7748 18.8969C13.7485 18.8969 13.7485 18.8969 13.7221 18.9231C13.7221 18.9493 13.6958 18.9755 13.6958 19.0017C13.6958 19.0541 13.6432 19.1326 13.5905 19.1326C13.5642 19.1326 13.5116 19.1064 13.5116 19.0802C13.4853 19.0279 13.5379 18.9231 13.5642 18.8969C13.5905 18.8969 13.5905 18.8969 13.6169 18.9231C13.5905 18.9231 13.5905 18.9493 13.5905 18.9493C13.5905 18.9755 13.5905 19.0017 13.5905 19.0017C13.5905 19.0279 13.6169 19.0279 13.6432 19.0279C13.6695 19.0017 13.6958 18.9755 13.6958 18.9231C13.6958 18.8969 13.6958 18.8707 13.6958 18.8707C13.6695 18.8183 13.6432 18.7922 13.6169 18.8183C13.5905 18.8183 13.5379 18.8445 13.5116 18.8969C13.4589 18.9755 13.4326 19.1064 13.4063 19.185C13.3537 19.2636 13.301 19.2636 13.2221 19.2374C13.1957 19.2374 13.1168 19.2112 13.0905 19.2112C13.0115 19.185 12.9588 19.1588 12.9588 19.0802C12.9588 19.0017 13.0115 18.8445 12.9852 18.766C12.9852 18.7136 12.9588 18.6874 12.9325 18.6612C12.9062 18.635 12.8536 18.6612 12.8272 18.6874C12.8272 18.6874 12.8009 18.7136 12.8009 18.7398C12.7746 18.7922 12.7746 18.8445 12.8009 18.8707C12.8272 18.8969 12.8272 18.8969 12.8536 18.8707C12.8799 18.8445 12.8799 18.8183 12.8799 18.8183C12.8799 18.7922 12.8799 18.7922 12.8536 18.766C12.8799 18.7398 12.8799 18.7398 12.9062 18.766C12.9325 18.7922 12.9062 18.9231 12.8799 18.9493C12.8536 18.9755 12.8009 18.9755 12.7746 18.9755C12.7483 18.9493 12.722 18.8707 12.7483 18.8183C12.7483 18.7922 12.7746 18.766 12.7746 18.7398C12.7746 18.7136 12.7483 18.7136 12.7483 18.6874C12.7483 18.6874 12.7746 18.635 12.8536 18.6612C12.8536 18.635 12.8536 18.635 12.8536 18.6088C12.8536 18.5565 12.8536 18.5565 12.8799 18.5565C12.9062 18.5565 12.9062 18.5565 12.9062 18.5826C12.9325 18.5826 12.9325 18.6088 12.9588 18.635V18.6088C12.9588 18.5826 12.9588 18.5826 12.9852 18.5565C12.9852 18.5565 13.0115 18.5565 13.0115 18.5826C13.0378 18.6088 13.0641 18.635 13.0641 18.6874C13.0905 18.7398 13.1168 18.7922 13.1168 18.8445V18.8183C13.1168 18.7398 13.1694 18.6874 13.2221 18.6612C13.2221 18.635 13.2221 18.6088 13.2221 18.6088C13.2221 18.5826 13.2221 18.5565 13.1957 18.5303C13.2221 18.5041 13.2747 18.5303 13.301 18.5565C13.301 18.5041 13.301 18.4517 13.301 18.3731C13.301 18.3207 13.3273 18.2684 13.3537 18.216C13.3537 18.216 13.38 18.1898 13.38 18.216C13.4063 18.2422 13.4063 18.2946 13.4063 18.3469C13.4063 18.4255 13.4063 18.4779 13.38 18.5303C13.4063 18.5303 13.4589 18.5303 13.4589 18.5565C13.4326 18.6088 13.4326 18.635 13.4063 18.6612V18.6874L13.4326 18.7398C13.4589 18.766 13.4589 18.8183 13.4326 18.8707C13.4326 18.8969 13.4326 18.8969 13.4063 18.9231C13.4326 18.8707 13.4853 18.8183 13.5116 18.7922C13.5379 18.766 13.5642 18.7398 13.5905 18.7398C13.5905 18.7398 13.5905 18.7398 13.6169 18.7398C13.6169 18.766 13.6169 18.766 13.6169 18.7922C13.6169 18.7922 13.6169 18.7922 13.6169 18.8183C13.6432 18.8183 13.6695 18.7922 13.6695 18.7922C13.6958 18.7922 13.6958 18.7922 13.7221 18.7922C13.7485 18.7922 13.7485 18.8183 13.7221 18.8445C13.7221 18.8445 13.6958 18.8707 13.6958 18.8969C13.7485 18.8445 13.7748 18.8445 13.7748 18.8969ZM13.6958 17.4827C13.6958 17.4565 13.6695 17.4041 13.6432 17.3779C13.5905 17.4041 13.5116 17.4565 13.5116 17.4565C13.5379 17.4041 13.5642 17.3517 13.5905 17.2732C13.5642 17.2732 13.5642 17.2732 13.5379 17.2732C13.6958 16.9851 14.0117 16.828 14.1959 16.8541C13.9853 17.0375 13.7748 17.1946 13.6958 17.4827ZM14.0906 17.5089C14.038 17.4565 14.0117 17.3779 14.0643 17.2732C14.0906 17.1684 14.1696 17.116 14.2485 17.0375C14.2749 17.0113 14.3275 16.9851 14.3538 16.9589C14.3012 17.0637 14.3275 17.1422 14.3538 17.247C14.3012 17.247 14.2485 17.247 14.1959 17.247C14.1959 17.3779 14.1433 17.4565 14.0906 17.5089ZM14.2749 17.6398C14.2222 17.6398 14.1959 17.6398 14.1696 17.5874C14.2222 17.5613 14.2485 17.5351 14.2749 17.4827C14.3012 17.4303 14.3275 17.3517 14.3801 17.2994C14.3801 17.3256 14.4065 17.3517 14.4065 17.3779C14.4065 17.4303 14.4065 17.4827 14.3801 17.5351C14.3538 17.6136 14.3275 17.6398 14.2749 17.6398ZM14.5117 17.666C14.4854 17.6922 14.4591 17.6922 14.4328 17.6922H14.4065C14.4591 17.6398 14.4591 17.6136 14.4591 17.5613C14.4591 17.5089 14.4591 17.4565 14.4591 17.4041C14.5117 17.4303 14.5644 17.5089 14.5644 17.5874C14.5644 17.6136 14.5381 17.6398 14.5117 17.666ZM14.2485 15.7804C14.2749 15.8328 14.3012 15.8851 14.3275 15.9113C14.3538 15.9637 14.3801 15.9899 14.4065 16.0423C14.4328 16.0947 14.4854 16.1732 14.5117 16.2518C14.5644 16.3827 14.4854 16.5137 14.3801 16.5661C14.3538 16.4875 14.3275 16.4351 14.2749 16.3566C14.1959 16.1732 14.1959 15.9899 14.2485 15.7804ZM13.5905 15.2828C13.7221 15.3875 13.8274 15.5185 13.9327 15.6494C13.959 15.7018 13.9853 15.7804 13.959 15.8328C13.959 15.859 13.959 15.8851 13.959 15.9113C14.1433 16.2518 14.3012 16.5923 14.4065 16.9065C14.4065 16.9327 14.4328 16.9327 14.4591 16.9589C14.4854 16.9851 14.5117 17.0113 14.5381 17.0375C14.5644 17.0899 14.5644 17.1422 14.5644 17.1946C14.5644 17.247 14.5644 17.3256 14.5644 17.3779C14.5381 17.3779 14.4591 17.2732 14.4065 17.2208C14.3538 17.1422 14.3275 17.0899 14.3801 16.9851V16.9589C14.2749 16.6184 14.1169 16.278 13.9327 15.9375C13.9064 15.9113 13.9064 15.9113 13.8801 15.9113C13.8537 15.9113 13.8011 15.8851 13.7748 15.859C13.7221 15.7804 13.6695 15.7018 13.6169 15.6233C13.5379 15.4399 13.4589 15.2566 13.3537 15.0995C13.3537 15.0995 13.3537 15.0733 13.3273 15.0471C13.3537 15.0471 13.3537 15.0733 13.3537 15.0733C13.4589 15.1518 13.5379 15.2042 13.5905 15.2828ZM13.3273 14.1305C13.38 14.1828 13.4063 14.2352 13.38 14.2876C13.3537 14.34 13.301 14.3662 13.2484 14.34C13.1694 14.3138 13.1168 14.2352 13.1168 14.1828C13.1168 14.1566 13.1168 14.1566 13.1694 14.1566C13.1694 14.1828 13.1694 14.209 13.1694 14.209C13.1957 14.2352 13.2221 14.2614 13.2484 14.2614C13.2747 14.2614 13.301 14.2614 13.301 14.2352C13.301 14.1828 13.2747 14.1305 13.2221 14.1043C13.1957 14.1043 13.1694 14.0781 13.1694 14.0781C13.1168 14.0781 13.0641 14.0781 13.0378 14.1305C13.0115 14.1828 13.0115 14.2352 13.0378 14.2876C13.0905 14.3924 13.2221 14.5233 13.2747 14.6281C13.3273 14.7328 13.2747 14.8114 13.1957 14.8638C13.1957 14.8638 13.1957 14.8638 13.1694 14.8638C13.2221 14.7328 13.1431 14.5757 13.0378 14.4185C12.9852 14.34 12.9325 14.2614 12.8799 14.1566C12.8536 14.1043 12.8536 14.0519 12.8536 14.0257C12.8536 14.0257 12.8536 13.9995 12.8799 13.9995C12.9062 14.0257 12.9325 14.0519 12.9325 14.0519C12.9588 13.9733 12.9852 13.9471 12.9852 13.9471C13.0115 13.9209 13.0115 13.9209 13.0641 13.9733C13.0641 13.9995 13.0905 13.9995 13.0905 14.0257C13.1168 13.9995 13.1431 13.9471 13.2221 13.9733C13.2221 13.9995 13.1957 14.0257 13.2221 14.0257C13.2747 14.0781 13.301 14.1043 13.3273 14.1305ZM15.4856 7.32124C15.354 9.57352 13.6958 12.0091 12.9325 13.2138C12.6956 12.8472 12.4851 12.4543 12.2219 11.9829C13.7485 8.44738 13.7221 7.11172 13.4853 6.45699C13.0115 5.22609 11.6692 4.83325 10.6953 5.30466C10.8532 5.04277 11.327 4.51898 11.8797 4.28328C12.3535 4.09995 12.643 4.33566 12.7746 4.38803C13.0641 4.51898 13.3273 4.62374 13.6169 4.62374C13.9327 4.62374 14.0906 4.44041 14.1696 4.38803C14.3012 4.49279 14.3801 4.51898 14.696 4.88563C15.275 5.56655 15.5382 6.32604 15.4856 7.32124Z" fill="#242424"/>
<path id="Vector_4" d="M9.45761 6.32599L9.48393 6.14267C9.48393 6.11648 9.48393 6.09029 9.45761 6.09029L9.29969 6.01172H9.27337C9.27337 6.01172 9.24704 6.01172 9.24704 6.03791L9.11544 6.16885C9.08912 6.19504 9.08912 6.19504 9.11544 6.22123L9.1944 6.37837C9.1944 6.40456 9.22072 6.40456 9.22072 6.40456L9.40497 6.37837C9.43129 6.37837 9.43129 6.35218 9.45761 6.32599Z" fill="#242424"/>
<path id="Vector_5" d="M9.27344 5.75C9.27344 5.82857 9.32608 5.88095 9.37872 5.90714C9.45768 5.93333 9.53664 5.90714 9.56296 5.85476C9.484 5.80238 9.37872 5.75 9.27344 5.75Z" fill="#242424"/>
<path id="Vector_6" d="M9.58984 6.24698C9.58984 6.32555 9.64248 6.37793 9.69512 6.40412C9.72145 6.35174 9.74777 6.27317 9.74777 6.22079C9.74777 6.16841 9.74777 6.14222 9.72145 6.08984C9.64248 6.08984 9.58984 6.16841 9.58984 6.24698Z" fill="#242424"/>
<path id="Vector_7" d="M9.24805 6.66593C9.27437 6.66593 9.27437 6.66593 9.30069 6.66593C9.40597 6.66593 9.48493 6.63974 9.56389 6.58736C9.53757 6.53498 9.48493 6.50879 9.43229 6.50879C9.32701 6.53498 9.24805 6.58736 9.24805 6.66593Z" fill="#242424"/>
<path id="Vector_8" d="M9.98325 13.0562L10.0622 13.0038L9.79901 12.5586L9.72005 12.611L9.82533 12.7943L9.35156 13.0562L9.4042 13.1609L9.87797 12.8991L9.98325 13.0562Z" fill="#242424"/>
<path id="Vector_9" d="M10.1415 13.1349L9.5625 13.4491L9.64146 13.5539L10.0626 13.3182L9.72042 13.711L9.77306 13.8158L10.2995 13.711L9.87834 13.9729L9.93098 14.0777L10.51 13.7372L10.4047 13.5801L9.93098 13.6587L10.2468 13.292L10.1415 13.1349Z" fill="#242424"/>
</g>
</g>
</svg>
