<svg width="20" height="20" viewBox="0 0 20 20" fill="none" xmlns="http://www.w3.org/2000/svg">
<g id="icon - dashboard/delete" clip-path="url(#clip0_450_330)">
<path id="icon" d="M7.29175 14.5829L10.0001 11.9348L12.7084 14.5829L14.1667 13.157L11.4584 10.5089L14.1667 7.86072L12.7084 6.4348L10.0001 9.08295L7.29175 6.4348L5.83342 7.86072L8.54175 10.5089L5.83342 13.157L7.29175 14.5829ZM4.79175 19.1663C4.21883 19.1663 3.72855 18.967 3.32091 18.5684C2.91258 18.1691 2.70841 17.6894 2.70841 17.1292V3.8885H1.66675V1.85147H6.87508V0.832947H13.1251V1.85147H18.3334V3.8885H17.2917V17.1292C17.2917 17.6894 17.0879 18.1691 16.6803 18.5684C16.272 18.967 15.7813 19.1663 15.2084 19.1663H4.79175ZM15.2084 3.8885H4.79175V17.1292H15.2084V3.8885Z" fill="#E46D64"/>
</g>
<defs>
<clipPath id="clip0_450_330">
<rect width="20" height="20" fill="white" transform="translate(0 -0.000366211)"/>
</clipPath>
</defs>
</svg>
