<svg width="70" height="26" viewBox="0 0 70 26" fill="none" xmlns="http://www.w3.org/2000/svg">
<g id="Frame" clip-path="url(#clip0_417_1417)">
<path id="Vector" d="M30.1854 20.366C30.2223 21.4711 29.4127 22.3478 28.1225 22.3478C27.8618 22.3514 27.6031 22.3024 27.362 22.2037C27.1209 22.1049 26.9024 21.9585 26.7197 21.7733C26.5369 21.5881 26.3937 21.3679 26.2987 21.1261C26.2036 20.8842 26.1588 20.6257 26.1668 20.366C26.1602 20.0987 26.2082 19.8328 26.3079 19.5844C26.4075 19.3361 26.5568 19.1105 26.7466 18.9214C26.9364 18.7323 27.1628 18.5836 27.412 18.4843C27.6612 18.385 27.9281 18.3371 28.1964 18.3437C28.4635 18.3346 28.7296 18.381 28.9778 18.48C29.2259 18.579 29.4507 18.7283 29.6378 18.9185C29.8249 19.1087 29.9701 19.3357 30.0644 19.5849C30.1587 19.8341 30.1999 20.1001 30.1854 20.366Z" fill="white"/>
<path id="Vector_2" d="M34.2511 13.5594C34.2511 11.9718 34.2215 10.6715 34.1254 9.4006H36.6134L36.7724 11.9423H36.8389C37.344 11.0428 38.0863 10.2979 38.9854 9.78823C39.8846 9.27857 40.9065 9.02352 41.9407 9.05065C44.0738 9.05065 47.3899 10.3215 47.3899 15.5928V24.7725H44.5655V15.9133C44.5655 13.4342 43.6412 11.3713 40.9942 11.3713C40.1432 11.3848 39.3189 11.6697 38.6423 12.1841C37.9656 12.6986 37.4722 13.4156 37.2345 14.2299C37.0998 14.65 37.0349 15.0892 37.0422 15.5302V24.7725H34.2511V13.5594Z" fill="white"/>
<path id="Vector_3" d="M30.1854 11.0721C30.2223 12.1772 29.4127 13.0576 28.1225 13.0576C27.8616 13.0607 27.6029 13.0112 27.3618 12.9121C27.1207 12.8129 26.9022 12.6662 26.7195 12.4807C26.5367 12.2952 26.3936 12.0748 26.2986 11.8327C26.2036 11.5906 26.1588 11.3319 26.1668 11.0721C26.1602 10.8048 26.2082 10.5388 26.3079 10.2905C26.4075 10.0422 26.5568 9.81663 26.7466 9.62751C26.9364 9.4384 27.1628 9.28967 27.412 9.19037C27.6612 9.09106 27.9281 9.04324 28.1964 9.04981C28.4635 9.04072 28.7296 9.08714 28.9778 9.1861C29.2259 9.28505 29.4507 9.43439 29.6378 9.62461C29.8248 9.81482 29.9701 10.0418 30.0644 10.291C30.1587 10.5402 30.1999 10.8062 30.1854 11.0721Z" fill="white"/>
<path id="Vector_4" d="M0.979858 24.7719C1.04271 23.7258 1.10555 22.1676 1.10555 20.8046V2.2243H3.87824V11.8792H3.93739C4.92447 10.1626 6.71008 9.05011 9.19441 9.05011C13.0207 9.05011 15.7306 12.2291 15.6973 16.8963C15.6973 22.3923 12.2222 25.1219 8.78036 25.1219C6.56221 25.1219 4.7655 24.2636 3.60467 22.2302H3.50855L3.37916 24.7719H0.979858ZM3.87824 18.6129C3.88848 18.9539 3.93182 19.2932 4.00764 19.6259C4.24126 20.5614 4.78242 21.3921 5.54487 21.9856C6.30733 22.5791 7.2472 22.9012 8.21473 22.9006C11.1464 22.9006 12.8987 20.5173 12.8987 17.0068C12.8987 13.9273 11.3054 11.2898 8.31085 11.2898C7.31772 11.3069 6.35864 11.6534 5.58531 12.2745C4.81197 12.8956 4.26852 13.7559 4.04091 14.7193C3.94525 15.0929 3.89071 15.4758 3.87824 15.8612V18.6129Z" fill="white"/>
<path id="Vector_5" d="M22.0563 2.22108H19.2504V24.7724H22.0563V2.22108Z" fill="white"/>
<path id="Vector_6" d="M63.453 0.975616H65.3015V1.30911H64.5729V3.18581H64.1748V1.30911H63.453V0.975616Z" fill="white"/>
<path id="Vector_7" d="M54.712 16.4506H54.7786C55.1483 15.9128 55.6991 15.2423 56.1464 14.7045L60.6752 9.40006H64.0541L58.091 15.7212L64.8823 24.7719H61.47L56.1464 17.4046L54.712 18.9923V24.7719H51.9393V2.2243H54.712V16.4506Z" fill="white"/>
<path id="Vector_8" d="M65.6715 0.975616H66.196L66.7901 2.70846H66.7964L67.3715 0.975616H67.8897V3.18581H67.5358V1.47912H67.5294L66.9354 3.18581H66.6258L66.0317 1.47912H66.0254V3.18581H65.6715V0.975616Z" fill="white"/>
</g>
<defs>
<clipPath id="clip0_417_1417">
<rect width="68.0488" height="24.1463" fill="white" transform="translate(0.975586 0.975616)"/>
</clipPath>
</defs>
</svg>
