<svg width="21" height="21" viewBox="0 0 21 21" fill="none" xmlns="http://www.w3.org/2000/svg">
<g id="icon - dashboard/Itinerary">
<path id="icon" d="M15.25 3.68182V4.18182H15.75H16.5C17.0441 4.18182 17.5 4.63503 17.5 5.19697V17.3182C17.5 17.8801 17.0441 18.3333 16.5 18.3333H4.5C3.95587 18.3333 3.5 17.8801 3.5 17.3182V5.19697C3.5 4.63503 3.95587 4.18182 4.5 4.18182H5.25H5.75V3.68182V2.66667H6.25V3.68182V4.18182H6.75H14.25H14.75V3.68182V2.66667H15.25V3.68182ZM16.5 17.8182H17V17.3182V7.4697V6.9697H16.5H4.5H4V7.4697V17.3182V17.8182H4.5H16.5Z" fill="#757575" stroke="#757575"/>
</g>
</svg>
