<svg width="20" height="20" viewBox="0 0 20 20" fill="none" xmlns="http://www.w3.org/2000/svg">
<g id="icon - dashboard/?">
<circle id="Ellipse" cx="10" cy="10" r="7.83333" stroke="#BABABA"/>
<path id="Vector" d="M10.5966 11.6073H9.18147C9.18516 11.2713 9.21106 10.9819 9.25916 10.7392C9.31095 10.4928 9.39789 10.2707 9.51998 10.0728C9.64576 9.87492 9.81225 9.67891 10.0194 9.48477C10.1933 9.32796 10.345 9.17861 10.4745 9.03674C10.604 8.89486 10.7057 8.74925 10.7797 8.59991C10.8537 8.44683 10.8907 8.27696 10.8907 8.09028C10.8907 7.87373 10.8574 7.69452 10.7908 7.55264C10.7279 7.40703 10.6317 7.29689 10.5022 7.22222C10.3764 7.14755 10.2174 7.11021 10.025 7.11021C9.86589 7.11021 9.71791 7.14568 9.58102 7.21662C9.44414 7.28383 9.3313 7.38837 9.24251 7.53024C9.15742 7.67212 9.11302 7.8588 9.10932 8.09028H7.5C7.5111 7.57878 7.62764 7.15688 7.84961 6.8246C8.07529 6.48857 8.3768 6.24029 8.75416 6.07975C9.13152 5.91547 9.55512 5.83333 10.025 5.83333C10.5429 5.83333 10.9869 5.9192 11.3568 6.09095C11.7268 6.25896 12.0098 6.50724 12.2059 6.8358C12.402 7.16062 12.5 7.55638 12.5 8.02307C12.5 8.34789 12.4371 8.63724 12.3113 8.89113C12.1855 9.14128 12.0209 9.37463 11.8174 9.59117C11.6139 9.80772 11.3901 10.0317 11.1459 10.2632C10.9351 10.4536 10.7908 10.6534 10.7131 10.8625C10.6391 11.0715 10.6003 11.3198 10.5966 11.6073ZM9.01498 13.3378C9.01498 13.0989 9.09637 12.901 9.25916 12.7442C9.42194 12.5836 9.64021 12.5034 9.91398 12.5034C10.1841 12.5034 10.4005 12.5836 10.5633 12.7442C10.7297 12.901 10.813 13.0989 10.813 13.3378C10.813 13.5693 10.7297 13.7653 10.5633 13.9259C10.4005 14.0864 10.1841 14.1667 9.91398 14.1667C9.64021 14.1667 9.42194 14.0864 9.25916 13.9259C9.09637 13.7653 9.01498 13.5693 9.01498 13.3378Z" fill="#BABABA"/>
</g>
</svg>
