<svg width="24" height="24" viewBox="0 0 24 24" fill="none" xmlns="http://www.w3.org/2000/svg">
<g id="Nav Icons/settings">
<path id="Vector" d="M10.0941 19.0864L9.81175 16.8276C9.65881 16.7688 9.51481 16.6982 9.37975 16.6158C9.24422 16.5335 9.11175 16.4452 8.98234 16.3511L6.88234 17.2335L4.94116 13.8805L6.75881 12.504C6.74704 12.4217 6.74116 12.3422 6.74116 12.2655V11.789C6.74116 11.7127 6.74704 11.6335 6.75881 11.5511L4.94116 10.1746L6.88234 6.82169L8.98234 7.70404C9.11175 7.60993 9.24704 7.52169 9.38822 7.43934C9.5294 7.35699 9.67057 7.2864 9.81175 7.22757L10.0941 4.96875H13.9765L14.2588 7.22757C14.4117 7.2864 14.556 7.35699 14.6915 7.43934C14.8266 7.52169 14.9588 7.60993 15.0882 7.70404L17.1882 6.82169L19.1294 10.1746L17.3117 11.5511C17.3235 11.6335 17.3294 11.7127 17.3294 11.789V12.2655C17.3294 12.3422 17.3176 12.4217 17.2941 12.504L19.1117 13.8805L17.1706 17.2335L15.0882 16.3511C14.9588 16.4452 14.8235 16.5335 14.6823 16.6158C14.5412 16.6982 14.4 16.7688 14.2588 16.8276L13.9765 19.0864H10.0941ZM12.0706 14.4982C12.7529 14.4982 13.3353 14.257 13.8176 13.7746C14.3 13.2923 14.5412 12.7099 14.5412 12.0276C14.5412 11.3452 14.3 10.7629 13.8176 10.2805C13.3353 9.79816 12.7529 9.55699 12.0706 9.55699C11.3765 9.55699 10.791 9.79816 10.3143 10.2805C9.8381 10.7629 9.59999 11.3452 9.59999 12.0276C9.59999 12.7099 9.8381 13.2923 10.3143 13.7746C10.791 14.257 11.3765 14.4982 12.0706 14.4982ZM12.0706 13.0864C11.7765 13.0864 11.5266 12.9833 11.3209 12.7772C11.1148 12.5716 11.0118 12.3217 11.0118 12.0276C11.0118 11.7335 11.1148 11.4836 11.3209 11.2779C11.5266 11.0718 11.7765 10.9688 12.0706 10.9688C12.3647 10.9688 12.6148 11.0718 12.8209 11.2779C13.0266 11.4836 13.1294 11.7335 13.1294 12.0276C13.1294 12.3217 13.0266 12.5716 12.8209 12.7772C12.6148 12.9833 12.3647 13.0864 12.0706 13.0864ZM11.3294 17.6746H12.7235L12.9706 15.804C13.3353 15.7099 13.6736 15.5716 13.9856 15.389C14.2972 15.2069 14.5823 14.9864 14.8412 14.7276L16.5882 15.4511L17.2765 14.2511L15.7588 13.104C15.8176 12.9393 15.8588 12.7657 15.8823 12.5831C15.9059 12.401 15.9176 12.2158 15.9176 12.0276C15.9176 11.8393 15.9059 11.6539 15.8823 11.4713C15.8588 11.2892 15.8176 11.1158 15.7588 10.9511L17.2765 9.80404L16.5882 8.60404L14.8412 9.34522C14.5823 9.07463 14.2972 8.84804 13.9856 8.66546C13.6736 8.48334 13.3353 8.34522 12.9706 8.2511L12.7412 6.38051H11.347L11.1 8.2511C10.7353 8.34522 10.3972 8.48334 10.0856 8.66546C9.77363 8.84804 9.48822 9.06875 9.2294 9.32757L7.48234 8.60404L6.7941 9.80404L8.31175 10.9335C8.25293 11.1099 8.21175 11.2864 8.18822 11.4629C8.16469 11.6393 8.15293 11.8276 8.15293 12.0276C8.15293 12.2158 8.16469 12.3982 8.18822 12.5746C8.21175 12.7511 8.25293 12.9276 8.31175 13.104L6.7941 14.2511L7.48234 15.4511L9.2294 14.7099C9.48822 14.9805 9.77363 15.2069 10.0856 15.389C10.3972 15.5716 10.7353 15.7099 11.1 15.804L11.3294 17.6746Z" fill="#989898"/>
</g>
</svg>
